<svg width="22" height="22" viewBox="0 0 22 22" fill="none" xmlns="http://www.w3.org/2000/svg">
<path d="M12.5385 1H9.65385H9.46154V4.01887L8.11538 4.77358H6.38462L5.23077 3.64151H4.26923L3.30769 4.77358V5.5283L4.46154 6.66038V8.35849L3.30769 9.67924H1V10.0566V12.6981H3.5L4.46154 13.8302V15.717L3.30769 16.8491V17.6038L4.26923 18.7358H5.23077L6.38462 17.6038H8.30769L9.46154 18.3585V21H12.5385V18.3585L13.6923 17.6038H15.0385L16.5769 18.7358H17.7308L18.6923 17.6038V16.8491L17.7308 15.717V13.8302L18.5 12.5094H21V9.67924H18.5L17.7308 8.54717V6.66038L18.6923 5.5283V4.77358L17.5385 3.64151H16.7692L15.6154 4.77358H13.6923L12.5385 4.01887V1Z" stroke="#BBBBBB" stroke-width="2"/>
<path d="M14.6154 11.3773C14.6154 13.1646 13.0557 14.717 11 14.717C8.94435 14.717 7.38462 13.1646 7.38462 11.3773C7.38462 9.59007 8.94435 8.03773 11 8.03773C13.0557 8.03773 14.6154 9.59007 14.6154 11.3773Z" stroke="#BBBBBB" stroke-width="2"/>
</svg>
