<svg width="50" height="63" viewBox="0 0 50 63" fill="none" xmlns="http://www.w3.org/2000/svg">
<path d="M20.6726 2.56056C19.6537 4.2939 20.6726 7.68168 20.6726 7.68168C20.6726 7.68168 15.5537 10.3794 12.8273 12.8028C9.92225 15.385 8.21943 17.0074 6.5511 20.4845C3.51135 26.8199 6.42516 32.2631 5.37912 38.4084C4.33309 44.5538 0.874576 44.7674 0.125946 50C-0.157415 51.9806 0.125938 55 0.125938 55L16.4884 55.3081C16.4884 55.3081 17.0541 59.8003 19.1035 61.4535C20.9009 62.9034 22.5286 63.0473 24.8567 62.9898C26.9885 62.9372 28.3834 62.7095 30.0869 61.4535C32.2759 59.8394 33.225 55.3081 33.225 55.3081H49.6259C49.6259 55.3081 49.944 52.1625 49.6259 50.187C48.7348 44.652 44.1259 43 43.5594 38.4084C42.9929 33.8168 44.8382 26.957 42.1163 20.4845C40.7143 17.1506 39.4898 15.3522 36.8861 12.8028C34.2824 10.2534 29.0409 7.68168 29.0409 7.68168C29.0409 7.68168 30.0597 4.2939 29.0409 2.56056C28.0797 0.92533 26.7836 0 24.8567 0C22.9298 0 21.6338 0.92533 20.6726 2.56056Z" fill="#BBBBBB"/>
</svg>
