<svg width="328" height="161" viewBox="0 0 328 161" fill="none" xmlns="http://www.w3.org/2000/svg">
<path d="M0 0V159.5L327.5 160L327 158L323.5 149.5L319.5 140C319.5 140 315.862 133.382 313 129.5C308.329 123.165 304.537 120.595 299 115L298.808 114.806C291.06 106.977 286.652 102.523 278.5 95C269.753 86.9276 264.812 82.4141 255.5 75C245.875 67.3367 240.352 63.1482 230 56.5C218.893 49.3671 212.223 46.0673 200.5 40C187.08 33.0543 179.554 29.052 165.5 23.5C154.761 19.2575 148.609 17.1489 137.5 14C123.093 9.91646 114.808 8.2267 100 6C81.6066 3.2341 71.0654 3.63774 52.5 2.5C32.0127 1.24448 0 0 0 0Z" fill="#FBFBFB"/>
<g filter="url(#filter0_i_4_566)">
<ellipse rx="8.97673" ry="3.92134" transform="matrix(0.834538 0.55095 -0.679067 0.734076 234.3 152.37)" fill="#FBFBFB"/>
<ellipse rx="7.17358" ry="2.67597" transform="matrix(0.834538 0.55095 -0.679067 0.734076 252.336 137.076)" fill="#FBFBFB"/>
<ellipse rx="7.17358" ry="3.29381" transform="matrix(0.834538 0.55095 -0.679067 0.734076 241.58 121.466)" fill="#FBFBFB"/>
<ellipse rx="7.30858" ry="3.22527" transform="matrix(0.893749 0.448566 -0.575251 0.817977 149.895 116.111)" fill="#FBFBFB"/>
<ellipse rx="8.77819" ry="2.82549" transform="matrix(0.893749 0.448566 -0.575251 0.817977 217.471 72.2488)" fill="#FBFBFB"/>
<ellipse rx="3.73759" ry="1.79405" transform="matrix(0.893749 0.448566 -0.575251 0.817977 201.689 97.8054)" fill="#FBFBFB"/>
<ellipse rx="3.73759" ry="1.79405" transform="matrix(0.893749 0.448566 -0.575251 0.817977 210.372 128.144)" fill="#FBFBFB"/>
<ellipse rx="16.9606" ry="8.90842" transform="matrix(0.954595 0.297908 -0.400657 0.916228 24.7597 25.2148)" fill="#FBFBFB"/>
<ellipse rx="21.9446" ry="8.80913" transform="matrix(0.977153 0.212539 -0.291536 0.95656 106.011 115.091)" fill="#FBFBFB"/>
<ellipse rx="18.5648" ry="5.35927" transform="matrix(0.977153 0.212539 -0.291536 0.95656 52.7031 56.0722)" fill="#FBFBFB"/>
<ellipse rx="18.5648" ry="10.2739" transform="matrix(0.966316 0.257359 -0.335324 0.942103 95.3096 35.4569)" fill="#FBFBFB"/>
<ellipse rx="6.61233" ry="2.59663" transform="matrix(0.899869 0.43616 -0.561835 0.82725 102.009 72.8659)" fill="#FBFBFB"/>
<ellipse rx="12.2471" ry="3.96874" transform="matrix(0.915009 0.403433 -0.52559 0.850738 130.238 76.2427)" fill="#FBFBFB"/>
<ellipse rx="12.2471" ry="4.98328" transform="matrix(0.915009 0.403433 -0.52559 0.850738 156.52 55.3748)" fill="#FBFBFB"/>
<ellipse rx="11.9241" ry="6.21578" transform="matrix(0.831558 0.555439 -0.683335 0.730105 183.163 102.161)" fill="#FBFBFB"/>
<ellipse rx="15.7529" ry="7.74156" transform="matrix(0.831558 0.555439 -0.683335 0.730105 181.334 142.597)" fill="#FBFBFB"/>
</g>
<defs>
<filter id="filter0_i_4_566" x="8.17694" y="15.614" width="251.418" height="146.48" filterUnits="userSpaceOnUse" color-interpolation-filters="sRGB">
<feFlood flood-opacity="0" result="BackgroundImageFix"/>
<feBlend mode="normal" in="SourceGraphic" in2="BackgroundImageFix" result="shape"/>
<feColorMatrix in="SourceAlpha" type="matrix" values="0 0 0 0 0 0 0 0 0 0 0 0 0 0 0 0 0 0 127 0" result="hardAlpha"/>
<feOffset dx="1" dy="4"/>
<feGaussianBlur stdDeviation="2"/>
<feComposite in2="hardAlpha" operator="arithmetic" k2="-1" k3="1"/>
<feColorMatrix type="matrix" values="0 0 0 0 0 0 0 0 0 0 0 0 0 0 0 0 0 0 0.4 0"/>
<feBlend mode="normal" in2="shape" result="effect1_innerShadow_4_566"/>
</filter>
</defs>
</svg>
