<svg width="70" height="70" viewBox="0 0 70 70" fill="none" xmlns="http://www.w3.org/2000/svg">
<path d="M69.3013 1.72265C69.2298 1.02593 68.6789 0.47509 67.9821 0.403449C67.4413 0.348078 54.6422 -0.929558 46.1465 1.37046C46.1463 1.37046 46.146 1.3706 46.1456 1.3706C43.4943 2.08796 41.4817 3.10693 40.1619 4.39933C35.0038 8.63337 29.5451 14.5835 24.8271 20.9994C17.3104 19.8863 9.6513 22.0164 4.17461 27.4929C2.58169 29.0858 1.2357 30.9017 0.174209 32.8901C-0.115772 33.4332 -0.038662 34.099 0.367667 34.5615C0.773859 35.0238 1.42382 35.1862 2.00009 34.9687C5.92735 33.4851 11.1492 34.303 16.3679 36.9324C16.3758 36.9409 16.3832 36.9497 16.3915 36.9579C17.8395 38.4059 19.2874 39.8536 20.7354 41.3015C16.2681 46.4063 15.1176 52.6429 15.0678 52.9229C14.9835 53.3981 15.1366 53.8848 15.4779 54.2261C15.7574 54.5057 16.1342 54.6589 16.5228 54.6589C16.6087 54.6589 16.6951 54.6514 16.7811 54.6362C17.0611 54.5866 23.2982 53.4358 28.4029 48.9683C29.8507 50.4161 31.2984 51.8638 32.7463 53.3114C32.7538 53.3189 32.762 53.3251 32.7697 53.3326C35.4007 58.5528 36.2191 63.776 34.7353 67.7042C34.5178 68.2801 34.68 68.9303 35.1424 69.3366C35.4183 69.579 35.7667 69.7043 36.118 69.7043C36.3557 69.7043 36.5948 69.6471 36.8138 69.5301C38.8023 68.4686 40.6182 67.1226 42.2111 65.5297C46.8907 60.8502 49.2939 54.4659 48.9788 47.5525C48.9376 46.6509 48.8503 45.7546 48.7186 44.866C55.1283 40.1514 61.0723 34.6976 65.3035 29.5426C66.5964 28.2227 67.6152 26.2095 68.3323 23.5573C68.3323 23.5572 68.3323 23.557 68.3325 23.5569C70.634 15.0609 69.3566 2.26323 69.3013 1.72265ZM19.0699 29.7144C18.2485 31.117 17.4884 32.5071 16.7998 33.8639C15.9106 33.4497 15.0152 33.079 14.116 32.7581C11.3645 31.776 8.72913 31.2833 6.29457 31.2833C5.74947 31.2833 5.21422 31.308 4.69018 31.3575C5.1784 30.7363 5.70408 30.1437 6.26477 29.5831C10.6901 25.1577 16.7573 23.2397 22.8741 23.7453C21.5152 25.7202 20.2369 27.7214 19.0701 29.7146L19.0699 29.7144ZM19.2276 35.614C19.6753 34.7166 20.1572 33.8017 20.6699 32.8762L25.2258 37.4321C24.4212 37.9575 23.6163 38.5517 22.8359 39.2219C21.6331 38.0192 20.4305 36.8167 19.2276 35.614ZM27.3213 45.936C24.4764 48.7807 20.9198 50.3219 18.6209 51.0834C19.3825 48.784 20.9236 45.2278 23.7684 42.3831C26.6131 39.5384 30.1697 37.9973 32.4687 37.2356C31.7071 39.5351 30.166 43.0913 27.3213 45.936ZM34.0906 50.4757C32.8881 49.2734 31.6853 48.0707 30.4828 46.8681C31.153 46.0879 31.747 45.2832 32.2723 44.4786L36.8275 49.0338C35.9027 49.5463 34.9879 50.0283 34.0906 50.4757ZM40.1215 63.4397C39.5608 64.0004 38.9682 64.526 38.347 65.0143C38.6174 62.1504 38.1482 58.9558 36.946 55.5885C36.6249 54.6891 36.2541 53.7933 35.8398 52.904C37.1969 52.2156 38.5864 51.4553 39.9877 50.6338C39.9879 50.6338 39.988 50.6336 39.988 50.6336C41.9851 49.4648 43.9901 48.1841 45.9688 46.8226C45.9927 47.11 46.0134 47.3981 46.0266 47.6869C46.3036 53.7604 44.2065 59.3547 40.1215 63.4397ZM63.9565 26.4972C63.9404 26.4794 63.9253 26.4608 63.9082 26.4437L59.8208 22.3562C59.2437 21.7792 58.308 21.7792 57.7307 22.3562C57.1536 22.9333 57.1536 23.869 57.7307 24.4461L61.8182 28.5336C61.9056 28.621 62.002 28.6934 62.1031 28.7544C56.3891 35.3872 47.9176 42.4104 39.4745 47.501L33.7892 41.8157C35.464 38.4271 35.9883 35.5838 36.0214 35.3968C36.1057 34.9215 35.9526 34.4348 35.6114 34.0935C35.2698 33.7522 34.7833 33.5992 34.3082 33.6834C34.1211 33.7166 31.2778 34.2408 27.8892 35.9156L22.2027 30.2291C27.2874 21.7979 34.2976 13.339 40.9207 7.62575C40.9512 7.66267 40.9832 7.69862 41.0176 7.73308L49.7019 16.4173C49.9905 16.7059 50.3687 16.8502 50.7468 16.8502C51.125 16.8502 51.5033 16.7058 51.7918 16.4173C52.3689 15.8402 52.3689 14.9045 51.7918 14.3274L43.2098 5.74546C43.9712 5.25833 44.9382 4.82863 46.1054 4.46099L55.675 14.0306L65.2425 23.5981C64.8746 24.7667 64.4443 25.7352 63.9565 26.4972ZM66.0391 20.2147L49.489 3.6646C55.7469 2.58712 63.5122 3.01587 66.4649 3.24023C66.6897 6.19239 67.119 13.9538 66.0391 20.2147Z" fill="#0A0A0A"/>
<path d="M53.669 18.2946C53.0919 18.8717 53.0919 19.8074 53.669 20.3845L53.8168 20.5323C54.1054 20.8209 54.4836 20.9651 54.8618 20.9651C55.2399 20.9651 55.6182 20.8209 55.9067 20.5323C56.4838 19.9552 56.4838 19.0195 55.9067 18.4424L55.7589 18.2946C55.1818 17.7174 54.2461 17.7174 53.669 18.2946Z" fill="#0A0A0A"/>
<path d="M43.4912 18.0855C41.3201 18.0855 39.279 18.931 37.7439 20.4661C34.5749 23.6351 34.5749 28.7915 37.7439 31.9605C39.279 33.4956 41.3202 34.3411 43.4912 34.3411C45.6623 34.3411 47.7034 33.4956 49.2385 31.9605C50.7737 30.4255 51.619 28.3843 51.619 26.2133C51.619 24.0423 50.7735 22.0011 49.2385 20.4661C47.7034 18.931 45.6623 18.0855 43.4912 18.0855ZM47.1486 29.8708C46.1716 30.8478 44.8728 31.3856 43.4912 31.3856C42.1097 31.3856 40.8108 30.8475 39.8338 29.8708C37.8172 27.8542 37.8172 24.5728 39.8338 22.5562C40.8107 21.5792 42.1097 21.0414 43.4912 21.0414C44.8728 21.0414 46.1716 21.5792 47.1486 22.5562C48.1254 23.5332 48.6634 24.832 48.6634 26.2136C48.6636 27.595 48.1254 28.8938 47.1486 29.8708Z" fill="#0A0A0A"/>
</svg>
