<svg width="53" height="50" viewBox="0 0 53 50" fill="none" xmlns="http://www.w3.org/2000/svg">
<path d="M3.95336 7.62713C3.95336 8.09491 4.36326 8.47459 4.87039 8.47459C5.37752 8.47459 5.78743 8.09491 5.78743 7.62713C5.78743 6.22548 7.0218 5.08476 8.53853 5.08476C9.04566 5.08476 9.45557 4.70507 9.45557 4.2373C9.45557 3.76952 9.04566 3.38984 8.53853 3.38984C7.0218 3.38984 5.78743 2.24912 5.78743 0.847459C5.78743 0.379687 5.37752 0 4.87039 0C4.36326 0 3.95336 0.379687 3.95336 0.847459C3.95336 2.24912 2.71898 3.38984 1.20225 3.38984C0.695125 3.38984 0.285217 3.76952 0.285217 4.2373C0.285217 4.70507 0.695125 5.08476 1.20225 5.08476C2.71909 5.08476 3.95336 6.22538 3.95336 7.62713ZM4.87039 3.3873C5.13172 3.70849 5.44166 3.99579 5.79017 4.2373C5.44166 4.4788 5.13172 4.76523 4.87039 5.0873C4.60906 4.76523 4.29912 4.4788 3.95061 4.2373C4.29912 3.99579 4.60906 3.70849 4.87039 3.3873Z" fill="white"/>
<path d="M28.9544 19.4914C28.4473 19.4914 28.0374 19.1117 28.0374 18.6439C28.0374 18.1761 28.4473 17.7965 28.9544 17.7965H51.1209C50.1654 15.305 48.7366 12.9769 46.8953 10.9075C47.5739 9.96678 47.9709 8.83973 47.9709 7.62704C47.9709 4.35585 45.0906 1.69482 41.5517 1.69482C39.4902 1.69482 37.6571 2.60156 36.4823 4.00156C33.7018 3.03711 30.7848 2.54228 27.7961 2.54228C21.9152 2.54228 16.5094 4.4499 12.2579 7.62704H24.6993C25.2064 7.62704 25.6163 8.00673 25.6163 8.4745C25.6163 8.94227 25.2064 9.32196 24.6993 9.32196H10.224C7.67655 11.6966 5.68925 14.583 4.45593 17.7966H22.9002C23.4073 17.7966 23.8172 18.1762 23.8172 18.644C23.8172 19.1118 23.4073 19.4915 22.9002 19.4915H3.88551C3.64341 20.3219 3.44897 21.1694 3.30959 22.0338H14.0407C14.5479 22.0338 14.9578 22.4135 14.9578 22.8813C14.9578 23.3491 14.5479 23.7288 14.0407 23.7288H3.11156C3.06664 24.2889 3.03632 24.8534 3.03632 25.4237C3.03632 25.994 3.06654 26.5584 3.11156 27.1186H8.29738C8.8045 27.1186 9.21441 27.4983 9.21441 27.9661C9.21441 28.4338 8.8045 28.8135 8.29738 28.8135H3.30959C3.80382 31.8771 4.95662 34.7449 6.63196 37.2881H21.3238C21.8309 37.2881 22.2408 37.6678 22.2408 38.1356C22.2408 38.6033 21.8309 38.983 21.3238 38.983H7.86729C8.58629 39.883 9.37398 40.733 10.224 41.5254H28.7132C29.2203 41.5254 29.6302 41.9051 29.6302 42.3729C29.6302 42.8406 29.2203 43.2203 28.7132 43.2203H12.258C16.5094 46.3975 21.9153 48.3051 27.7963 48.3051C29.5294 48.3051 31.2635 48.1254 32.9656 47.7898C33.7469 49.1 35.237 50 36.9666 50C39.4948 50 41.5518 48.0991 41.5518 45.7627C41.5518 45.3399 41.4637 44.939 41.3381 44.5526C43.8636 43.0254 46.036 41.1466 47.7628 38.983H27.0396C26.5325 38.983 26.1226 38.6033 26.1226 38.1356C26.1226 37.6678 26.5325 37.2881 27.0396 37.2881H48.9796C50.6669 34.7195 51.7948 31.8499 52.2782 28.8135H39.7176C39.2105 28.8135 38.8006 28.4338 38.8006 27.9661C38.8006 27.4983 39.2105 27.1186 39.7176 27.1186H52.4836C52.5277 26.5576 52.5561 25.9932 52.5561 25.4237C52.5561 23.4042 52.2599 21.4127 51.7006 19.4915H28.9544V19.4914ZM37.0472 6.88632C37.0619 6.81093 37.0784 6.73544 37.0976 6.66093C37.1462 6.47196 37.2086 6.28808 37.2838 6.11005C37.3195 6.02362 37.3591 5.93798 37.4012 5.85409C38.1303 4.40322 39.7103 3.38965 41.5517 3.38965C44.0799 3.38965 46.1368 5.29052 46.1368 7.62694C46.1368 8.76512 45.6435 9.79471 44.8503 10.5566C44.8173 10.5888 44.7852 10.6219 44.7513 10.6532C44.5733 10.8142 44.379 10.9599 44.1745 11.093C44.1323 11.1202 44.0892 11.1472 44.0451 11.1735C43.8352 11.2998 43.6151 11.4116 43.3839 11.5057C43.3408 11.5235 43.2969 11.538 43.2528 11.5541C43.0117 11.6439 42.7613 11.7193 42.5008 11.7702C42.4724 11.7762 42.443 11.7787 42.4138 11.7838C42.134 11.8329 41.847 11.8642 41.5518 11.8642C39.0235 11.8642 36.9666 9.96336 36.9666 7.62694C36.9665 7.37362 37.0014 7.12782 37.0472 6.88632ZM36.9665 43.2201C37.1325 43.2201 37.2939 43.2397 37.4516 43.2651C37.5012 43.2735 37.5498 43.2837 37.5983 43.2947C37.712 43.3193 37.8212 43.3524 37.9284 43.3888C37.9898 43.4109 38.0513 43.432 38.1109 43.4574C38.2164 43.5024 38.3182 43.554 38.4163 43.6109C38.4961 43.6574 38.5722 43.7092 38.6465 43.7634C38.6777 43.7862 38.7079 43.81 38.7382 43.8337C39.0069 44.0481 39.2362 44.31 39.4049 44.6159L39.5149 44.8151C39.6433 45.1083 39.7176 45.427 39.7176 45.7625C39.7176 47.1642 38.4832 48.3049 36.9665 48.3049C35.844 48.3049 34.8793 47.6786 34.452 46.7854L34.3695 46.554C34.3199 46.415 34.2842 46.2845 34.2585 46.1591C34.2365 46.0286 34.2154 45.8981 34.2154 45.7625C34.2154 44.3609 35.4498 43.2201 36.9665 43.2201ZM30.5473 7.62704H35.1324C35.1324 8.216 35.2287 8.78465 35.403 9.32196H30.5473C30.0401 9.32196 29.6302 8.94227 29.6302 8.4745C29.6302 8.00673 30.0402 7.62704 30.5473 7.62704ZM21.377 14.4067C20.8699 14.4067 20.46 14.027 20.46 13.5593C20.46 13.0915 20.8699 12.7118 21.377 12.7118H30.5474C31.0545 12.7118 31.4644 13.0915 31.4644 13.5593C31.4644 14.027 31.0545 14.4067 30.5474 14.4067H21.377ZM22.294 22.0337H31.4644C31.9715 22.0337 32.3814 22.4134 32.3814 22.8812C32.3814 23.349 31.9715 23.7287 31.4644 23.7287H22.294C21.7869 23.7287 21.377 23.349 21.377 22.8812C21.377 22.4134 21.7869 22.0337 22.294 22.0337ZM14.0407 27.966C14.0407 27.4982 14.4506 27.1185 14.9578 27.1185H32.3813C32.8884 27.1185 33.2984 27.4982 33.2984 27.966C33.2984 28.4337 32.8884 28.8134 32.3813 28.8134H14.9578C14.4506 28.8134 14.0407 28.4337 14.0407 27.966ZM39.7176 32.2033C40.2247 32.2033 40.6346 32.5829 40.6346 33.0507C40.6346 33.5185 40.2247 33.8982 39.7176 33.8982H20.46C19.9528 33.8982 19.5429 33.5185 19.5429 33.0507C19.5429 32.5829 19.9528 32.2033 20.46 32.2033H39.7176Z" fill="white"/>
</svg>
