<svg width="80" height="81" viewBox="0 0 80 81" fill="none" xmlns="http://www.w3.org/2000/svg">
<path d="M79.0018 12.5315C79.035 11.8319 78.5725 11.2051 77.8941 11.0303C77.3677 10.8949 64.9023 7.72263 56.1585 8.72983C56.1583 8.72979 56.158 8.72988 56.1576 8.72982C53.429 9.04374 51.2869 9.75113 49.7891 10.8322C44.0572 14.2496 37.7722 19.3191 32.15 24.9596C24.8834 22.7378 16.9923 23.7017 10.76 28.3002C8.94735 29.6377 7.34557 31.2325 5.99939 33.0404C5.63166 33.5341 5.6086 34.204 5.94141 34.722C6.27411 35.2396 6.89258 35.4972 7.49485 35.368C11.5994 34.4868 16.6409 36.0743 21.4091 39.4527C21.4157 39.4622 21.4216 39.4721 21.4287 39.4815C22.6445 41.1292 23.8602 42.7767 25.0761 44.4243C19.8974 48.8057 17.8296 54.8009 17.7386 55.0704C17.5844 55.5277 17.6632 56.0318 17.9497 56.4202C18.1845 56.7383 18.5342 56.9461 18.9184 57.004C19.0033 57.0168 19.0899 57.0223 19.1772 57.0201C19.4614 57.0128 25.8004 56.8051 31.5143 53.1489C32.7301 54.7965 33.9457 56.4439 35.1614 58.0913C35.1677 58.0998 35.1749 58.1071 35.1814 58.1157C37.0044 63.6699 37.0346 68.9568 34.9816 72.6197C34.6806 73.1567 34.7441 73.8239 35.1407 74.2946C35.3773 74.5755 35.7031 74.7512 36.0506 74.8037C36.2855 74.8391 36.5305 74.8182 36.7645 74.7352C38.889 73.9821 40.8854 72.922 42.6981 71.5845C48.0233 67.6553 51.3518 61.7008 52.0713 54.8178C52.1651 53.9201 52.2124 53.0208 52.2147 52.1225C59.2558 48.4166 65.9468 43.9103 70.8995 39.444C72.3748 38.3317 73.6825 36.493 74.7871 33.9774C74.7872 33.9773 74.7872 33.9772 74.7873 33.9771C78.3303 25.9194 78.9759 13.0743 79.0018 12.5315ZM25.1574 32.7184C24.1359 33.9828 23.1771 35.244 22.2938 36.4829C21.4763 35.9408 20.6462 35.4406 19.8049 34.9892C17.2307 33.6077 14.6983 32.7275 12.291 32.3644C11.752 32.2831 11.219 32.2277 10.6934 32.1985C11.2689 31.657 11.877 31.1495 12.5151 30.6787C17.5509 26.9629 23.8363 25.9712 29.8093 27.3834C28.1711 29.1336 26.6086 30.9217 25.1576 32.7186L25.1574 32.7184ZM24.4335 38.5755C25.0099 37.7549 25.6229 36.9221 26.2679 36.0835L30.0934 41.2679C29.2194 41.6674 28.3349 42.1349 27.4633 42.6812C26.4533 41.3126 25.4435 39.9442 24.4335 38.5755ZM30.8971 49.9892C27.6598 52.3778 23.9131 53.3713 21.5263 53.7815C22.6224 51.6213 24.6767 48.3348 27.9138 45.9461C31.151 43.5575 34.8977 42.5641 37.2846 42.1539C36.1885 44.314 34.1343 47.6006 30.8971 49.9892ZM36.9137 55.4878C35.9039 54.1196 34.894 52.7509 33.8842 51.3825C34.6633 50.7109 35.3707 50.0038 36.0101 49.2865L39.835 54.4701C38.8441 54.839 37.8677 55.1792 36.9137 55.4878ZM40.9435 69.2062C40.3055 69.677 39.6412 70.1084 38.9541 70.4985C39.6486 67.7071 39.6611 64.4782 38.9746 60.9692C38.7911 60.032 38.5581 59.091 38.2811 58.1498C39.7257 57.6715 41.213 57.127 42.7213 56.5236C42.7214 56.5236 42.7215 56.5235 42.7215 56.5235C44.8706 55.6656 47.0442 54.6982 49.2038 53.6471C49.1846 53.9348 49.1621 54.2228 49.1321 54.5104C48.5002 60.5572 45.5921 65.7762 40.9435 69.2062ZM70.0218 36.2318C70.0085 36.2118 69.9964 36.1912 69.982 36.1717L66.5499 31.5203C66.0653 30.8636 65.1401 30.7241 64.4832 31.2086C63.8265 31.6932 63.687 32.6184 64.1716 33.2751L67.6037 37.9265C67.6771 38.0259 67.7616 38.112 67.8525 38.1874C61.2131 43.8937 51.7889 49.5749 42.681 53.3493L37.9072 46.8797C40.0687 43.7788 41.0112 41.0454 41.0718 40.8654C41.2261 40.4081 41.1473 39.904 40.8607 39.5157C40.5739 39.1271 40.1156 38.9033 39.6333 38.9157C39.4434 38.9207 36.5536 39.0149 32.9532 40.1656L28.1783 33.6945C34.4637 26.116 42.6571 18.7973 50.0582 14.1358C50.0829 14.1768 50.1091 14.2171 50.1381 14.2563L57.43 24.1387C57.6723 24.4671 58.0247 24.6661 58.3987 24.7225C58.7726 24.7789 59.1682 24.6926 59.4965 24.4504C60.1532 23.9658 60.2928 23.0406 59.8082 22.3839L52.6022 12.6179C53.4277 12.2498 54.448 11.9691 55.6569 11.7797L63.6923 22.6695L71.7258 33.5569C71.1877 34.6576 70.6178 35.5511 70.0218 36.2318ZM73.0181 30.3302L59.1215 11.4968C65.4701 11.3647 73.0845 12.9468 75.9708 13.6091C75.7527 16.5617 75.0197 24.3004 73.0181 30.3302Z" fill="white"/>
<path d="M61.0728 26.5867C60.4161 27.0712 60.2765 27.9965 60.7611 28.6532L60.8852 28.8214C61.1275 29.1498 61.48 29.3488 61.8539 29.4052C62.2278 29.4616 62.6234 29.3754 62.9517 29.133C63.6084 28.6485 63.748 27.7232 63.2634 27.0665L63.1393 26.8984C62.6548 26.2415 61.7295 26.102 61.0728 26.5867Z" fill="white"/>
<path d="M51.0399 24.8618C48.8931 24.538 46.7488 25.0696 45.0019 26.3586C41.3957 29.0195 40.6266 34.1183 43.2876 37.7245C44.5765 39.4713 46.4688 40.6118 48.6155 40.9356C50.7623 41.2594 52.9066 40.7278 54.6535 39.4388C56.4005 38.1499 57.5408 36.2576 57.8646 34.1109C58.1884 31.9642 57.6568 29.8198 56.3679 28.0729C55.0789 26.3261 53.1867 25.1856 51.0399 24.8618ZM52.8987 37.0608C51.7869 37.8811 50.4224 38.2192 49.0563 38.0132C47.6902 37.8071 46.4861 37.0813 45.6657 35.9698C43.9725 33.675 44.4619 30.4303 46.7567 28.737C47.8683 27.9167 49.233 27.5786 50.5991 27.7846C51.9652 27.9907 53.1693 28.7162 53.9896 29.828C54.8098 30.9398 55.1481 32.3043 54.942 33.6704C54.7361 35.0364 54.0103 36.2404 52.8987 37.0608Z" fill="white"/>
<path d="M3.33151 57.4862C3.70545 57.5426 4.10103 57.4564 4.42932 57.2141L16.0156 48.6649C16.6723 48.1803 16.8118 47.2551 16.3273 46.5984C15.8427 45.9417 14.9175 45.8021 14.2606 46.2867L2.67451 54.8358C2.0178 55.3204 1.87825 56.2456 2.36281 56.9024C2.60517 57.2306 2.95758 57.4298 3.33151 57.4862Z" fill="white"/>
<path d="M24.7899 60.5561L13.2035 69.1054C12.5468 69.5899 12.4072 70.5152 12.8918 71.1719C13.1342 71.5003 13.4866 71.6993 13.8605 71.7557C14.2344 71.8121 14.6301 71.7258 14.9583 71.4836L26.5447 62.9343C27.2015 62.4497 27.341 61.5245 26.8564 60.8678C26.372 60.2111 25.4468 60.0715 24.7899 60.5561Z" fill="white"/>
<path d="M14.785 58.7557C14.3004 58.099 13.3752 57.9595 12.7183 58.444L0.972608 67.1108C0.315902 67.5954 0.176346 68.5206 0.660912 69.1774C0.903252 69.5058 1.25568 69.7048 1.62961 69.7612C2.00355 69.8176 2.39913 69.7314 2.72742 69.4891L14.473 60.8222C15.1298 60.3378 15.2694 59.4124 14.785 58.7557Z" fill="white"/>
</svg>
