<svg width="318" height="279" viewBox="0 0 318 279" fill="none" xmlns="http://www.w3.org/2000/svg">
<path d="M312.888 58.7625C313.395 58.7625 313.805 58.3831 313.805 57.9151C313.805 57.447 313.395 57.0676 312.888 57.0676C312.382 57.0676 311.971 57.447 311.971 57.9151C311.971 58.3831 312.382 58.7625 312.888 58.7625Z" fill="white"/>
<path d="M316.556 22.3219C317.063 22.3219 317.473 21.9425 317.473 21.4745C317.473 21.0064 317.063 20.627 316.556 20.627C316.05 20.627 315.639 21.0064 315.639 21.4745C315.639 21.9425 316.05 22.3219 316.556 22.3219Z" fill="white"/>
<path d="M270.705 62.1523C271.211 62.1523 271.622 61.7729 271.622 61.3049C271.622 60.8368 271.211 60.4574 270.705 60.4574C270.198 60.4574 269.787 60.8368 269.787 61.3049C269.787 61.7729 270.198 62.1523 270.705 62.1523Z" fill="white"/>
<ellipse cx="301.517" cy="97" rx="1.06376" ry="1" fill="white"/>
<ellipse cx="274.923" cy="108" rx="1.06376" ry="1" fill="white"/>
<ellipse cx="293.007" cy="127" rx="1.06376" ry="1" fill="white"/>
<ellipse cx="250.456" cy="133" rx="1.06376" ry="1" fill="white"/>
<ellipse cx="238.755" cy="99" rx="1.06376" ry="1" fill="white"/>
<ellipse cx="217.48" cy="121" rx="1.06376" ry="1" fill="white"/>
<ellipse cx="281.305" cy="151" rx="1.06376" ry="1" fill="white"/>
<ellipse cx="254.711" cy="162" rx="1.06376" ry="1" fill="white"/>
<ellipse cx="272.795" cy="181" rx="1.06376" ry="1" fill="white"/>
<ellipse cx="230.245" cy="187" rx="1.06376" ry="1" fill="white"/>
<ellipse cx="218.544" cy="153" rx="1.06376" ry="1" fill="white"/>
<ellipse cx="197.268" cy="175" rx="1.06376" ry="1" fill="white"/>
<ellipse cx="308.963" cy="208" rx="1.06376" ry="1" fill="white"/>
<ellipse cx="282.369" cy="219" rx="1.06376" ry="1" fill="white"/>
<ellipse cx="300.453" cy="238" rx="1.06376" ry="1" fill="white"/>
<ellipse cx="257.903" cy="244" rx="1.06376" ry="1" fill="white"/>
<ellipse cx="246.201" cy="210" rx="1.06376" ry="1" fill="white"/>
<ellipse cx="224.926" cy="232" rx="1.06376" ry="1" fill="white"/>
<ellipse cx="236.628" cy="242" rx="1.06376" ry="1" fill="white"/>
<ellipse cx="210.034" cy="253" rx="1.06376" ry="1" fill="white"/>
<ellipse cx="228.117" cy="272" rx="1.06376" ry="1" fill="white"/>
<ellipse cx="185.567" cy="278" rx="1.06376" ry="1" fill="white"/>
<ellipse cx="173.866" cy="244" rx="1.06376" ry="1" fill="white"/>
<ellipse cx="152.591" cy="266" rx="1.06376" ry="1" fill="white"/>
<ellipse cx="207.906" cy="191" rx="1.06376" ry="1" fill="white"/>
<ellipse cx="181.312" cy="202" rx="1.06376" ry="1" fill="white"/>
<ellipse cx="199.396" cy="221" rx="1.06376" ry="1" fill="white"/>
<ellipse cx="156.846" cy="227" rx="1.06376" ry="1" fill="white"/>
<ellipse cx="145.144" cy="193" rx="1.06376" ry="1" fill="white"/>
<ellipse cx="123.869" cy="215" rx="1.06376" ry="1" fill="white"/>
<ellipse cx="125.997" cy="235" rx="1.06376" ry="1" fill="white"/>
<ellipse cx="99.4027" cy="246" rx="1.06376" ry="1" fill="white"/>
<ellipse cx="117.487" cy="265" rx="1.06376" ry="1" fill="white"/>
<ellipse cx="74.9363" cy="271" rx="1.06376" ry="1" fill="white"/>
<ellipse cx="63.235" cy="237" rx="1.06376" ry="1" fill="white"/>
<ellipse cx="41.9598" cy="259" rx="1.06376" ry="1" fill="white"/>
<ellipse cx="183.44" cy="134" rx="1.06376" ry="1" fill="white"/>
<ellipse cx="156.846" cy="145" rx="1.06376" ry="1" fill="white"/>
<ellipse cx="174.93" cy="164" rx="1.06376" ry="1" fill="white"/>
<ellipse cx="132.379" cy="170" rx="1.06376" ry="1" fill="white"/>
<ellipse cx="216.416" cy="71" rx="1.06376" ry="1" fill="white"/>
<ellipse cx="189.822" cy="82" rx="1.06376" ry="1" fill="white"/>
<ellipse cx="207.906" cy="101" rx="1.06376" ry="1" fill="white"/>
<ellipse cx="165.356" cy="107" rx="1.06376" ry="1" fill="white"/>
<ellipse cx="153.654" cy="73" rx="1.06376" ry="1" fill="white"/>
<ellipse cx="132.379" cy="95" rx="1.06376" ry="1" fill="white"/>
<ellipse cx="243.01" cy="14" rx="1.06376" ry="1" fill="white"/>
<ellipse cx="216.416" cy="25" rx="1.06376" ry="1" fill="white"/>
<ellipse cx="234.5" cy="44" rx="1.06376" ry="1" fill="white"/>
<ellipse cx="191.95" cy="50" rx="1.06376" ry="1" fill="white"/>
<ellipse cx="180.248" cy="16" rx="1.06376" ry="1" fill="white"/>
<ellipse cx="158.973" cy="38" rx="1.06376" ry="1" fill="white"/>
<ellipse cx="145.144" cy="1" rx="1.06376" ry="1" fill="white"/>
<ellipse cx="118.55" cy="12" rx="1.06376" ry="1" fill="white"/>
<ellipse cx="136.634" cy="31" rx="1.06376" ry="1" fill="white"/>
<ellipse cx="94.084" cy="37" rx="1.06376" ry="1" fill="white"/>
<ellipse cx="82.3826" cy="3" rx="1.06376" ry="1" fill="white"/>
<ellipse cx="61.1074" cy="25" rx="1.06376" ry="1" fill="white"/>
<ellipse cx="115.359" cy="58" rx="1.06376" ry="1" fill="white"/>
<ellipse cx="88.7652" cy="69" rx="1.06376" ry="1" fill="white"/>
<ellipse cx="106.849" cy="88" rx="1.06376" ry="1" fill="white"/>
<ellipse cx="64.2987" cy="94" rx="1.06376" ry="1" fill="white"/>
<ellipse cx="52.5974" cy="60" rx="1.06376" ry="1" fill="white"/>
<ellipse cx="31.3222" cy="82" rx="1.06376" ry="1" fill="white"/>
<ellipse cx="86.6376" cy="115" rx="1.06376" ry="1" fill="white"/>
<ellipse cx="60.0437" cy="126" rx="1.06376" ry="1" fill="white"/>
<ellipse cx="121.742" cy="185" rx="1.06376" ry="1" fill="white"/>
<ellipse cx="100.466" cy="207" rx="1.06376" ry="1" fill="white"/>
<ellipse cx="90.537" cy="185" rx="1.06376" ry="1" fill="white"/>
<ellipse cx="35.5773" cy="151" rx="1.06376" ry="1" fill="white"/>
<ellipse cx="23.8759" cy="117" rx="1.06376" ry="1" fill="white"/>
<ellipse cx="2.60075" cy="139" rx="1.06376" ry="1" fill="white"/>
<ellipse cx="52.5974" cy="7" rx="1.06376" ry="1" fill="white"/>
<ellipse cx="26.0034" cy="18" rx="1.06376" ry="1" fill="white"/>
<ellipse cx="44.0873" cy="37" rx="1.06376" ry="1" fill="white"/>
<ellipse cx="1.53699" cy="43" rx="1.06376" ry="1" fill="white"/>
<circle cx="308.479" cy="183.998" r="1" transform="rotate(89.9848 308.479 183.998)" fill="white"/>
<circle cx="286.474" cy="164.004" r="1" transform="rotate(89.9848 286.474 164.004)" fill="white"/>
<circle cx="299.468" cy="144" r="1" transform="rotate(89.9848 299.468 144)" fill="white"/>
<circle cx="113.473" cy="136" r="1" fill="white"/>
<circle cx="93.4732" cy="158" r="1" fill="white"/>
<circle cx="73.4732" cy="145" r="1" fill="white"/>
<circle cx="297.473" cy="255" r="1" fill="white"/>
<circle cx="277.473" cy="277" r="1" fill="white"/>
<circle cx="257.473" cy="264" r="1" fill="white"/>
<circle cx="55.4732" cy="168" r="1" fill="white"/>
<circle cx="35.4733" cy="190" r="1" fill="white"/>
<circle cx="15.4733" cy="177" r="1" fill="white"/>
</svg>
