<svg width="512" height="512" viewBox="0 0 512 512" fill="none" xmlns="http://www.w3.org/2000/svg">
<path d="M383.647 199.567C383.647 199.567 376.938 145.656 383.647 128.585C390.357 111.513 401.092 114.209 398.408 104.774C395.724 95.34 381.711 80.0436 365.755 71.0803C348.354 61.3053 297.318 65.6893 315.657 61.1967C333.997 56.7042 347.416 54.0087 334.891 48.6176C322.367 43.2266 305.545 34.3435 285.241 31.546C262.849 28.4608 249.329 30.0107 227.539 36.0385C206.149 41.9557 192.073 45.2789 176.547 61.1967C163.15 74.9312 160.482 86.7813 153.734 104.774C147.328 121.858 144.813 132.036 142.552 150.149C140.162 169.298 142.552 199.567 142.552 199.567C142.552 199.567 144.502 212.873 150.156 218.436C154.958 223.16 159.698 222.816 165.812 225.624M165.812 225.624C167.558 202.289 158.167 185.859 170.285 165.873C177.29 154.319 183.007 147.514 195.333 142.062C206.739 137.018 214.775 137.008 227.092 138.918C241.454 141.144 247.076 149.851 260.639 155.091C274.569 160.472 282.488 164.189 297.318 165.873C307.038 166.976 322.367 165.873 322.367 165.873M165.812 225.624C166.203 236.115 167.212 242.095 170.285 252.13C173.272 261.886 175.723 267.228 181.02 275.94C187.162 286.044 191.171 291.756 200.254 299.301C208.335 306.014 214.43 307.515 223.513 312.779M223.513 312.779C238.012 316.112 245.794 320.391 260.639 321.315C276.967 322.331 286.916 322.128 302.238 316.373C316.533 311.003 324.868 306.367 334.891 294.809C344.589 283.626 347.015 274.813 351.441 260.665C356.41 244.782 357.747 235.077 357.256 218.436M223.513 312.779C223.513 321.025 223.513 333.894 223.513 333.894C223.513 333.894 223.513 341.013 223.513 345.574M357.256 218.436C357.256 205.102 357.256 197.626 357.256 184.292C357.256 172.888 357.256 155.091 357.256 155.091C357.256 155.091 357.256 193.698 357.256 218.436ZM223.513 345.574C233.645 350.662 238.433 355.986 249.457 358.603C260.507 361.226 267.482 361.226 278.531 358.603M223.513 345.574C215.349 352.045 210.026 355.027 200.254 358.603C191.37 361.854 185.833 361.757 176.547 363.544C167.662 365.254 162.105 364.142 153.734 367.588C143.584 371.767 138.513 376.298 131.369 384.659C124.95 392.174 122.376 397.428 118.845 406.673C115.262 416.054 114.538 421.84 113.477 431.831C112.403 441.949 113.477 447.712 113.477 457.888C113.477 467.011 113.477 481.249 113.477 481.249" stroke="#4A4A4A" stroke-width="13"/>
<path d="M312.049 453.197H343.36" stroke="#4A4A4A" stroke-width="13" stroke-linecap="round"/>
<path d="M299.972 339.087C304.339 343.824 306.787 346.479 311.154 351.216C315.521 355.953 317.682 356.348 322.337 358.854C327.941 361.87 337.545 364.694 337.545 364.694" stroke="#4A4A4A" stroke-width="13"/>
<path d="M410.455 454.994V481.5" stroke="#4A4A4A" stroke-width="13"/>
<path d="M456 394.345C456 428.573 428.379 456.284 394.352 456.284C360.326 456.284 332.704 428.573 332.704 394.345C332.704 360.116 360.326 332.406 394.352 332.406C428.379 332.406 456 360.116 456 394.345Z" stroke="#3DBF00" stroke-width="10"/>
<path d="M395.043 358.854V393.896M395.043 428.937V393.896M395.043 393.896H359.015H428.794" stroke="#3DBF00" stroke-width="10"/>
</svg>
